<?xml version="1.0" encoding="UTF-8" standalone="no"?>
<!DOCTYPE svg PUBLIC "-//W3C//DTD SVG 1.1//EN" "http://www.w3.org/Graphics/SVG/1.1/DTD/svg11.dtd">
<svg width="100%" height="100%" viewBox="0 0 22 22" version="1.1" xmlns="http://www.w3.org/2000/svg" xmlns:xlink="http://www.w3.org/1999/xlink" xml:space="preserve" xmlns:serif="http://www.serif.com/" style="fill-rule:evenodd;clip-rule:evenodd;stroke-linejoin:round;stroke-miterlimit:2;">
    <g transform="matrix(1,0,0,1,-1,-1)">
        <path d="M12,1C5.9,1 1,5.9 1,12C1,18.1 5.9,23 12,23C18.1,23 23,18.1 23,12C23,5.9 18.1,1 12,1ZM16.1,18.2C14.4,18.6 12.7,18 12.7,18C11,16.8 9.9,15.4 9.3,14.4L9.1,14.2C8.5,13.2 7.4,11.6 6.9,9.5C6.9,9.5 7.1,7.7 8.1,6.3C9.3,5.4 9.9,5.9 9.9,5.9L11.5,8.2C11.7,8.5 11.6,8.9 11.3,9.1L10.2,9.8C10.2,9.8 9.2,10.1 11.1,13C13,15.8 13.5,14.9 13.5,14.9L14.6,14.2C14.9,14 15.3,14.1 15.5,14.4L17.1,16.7C17.1,16.6 17.3,17.4 16.1,18.2Z" style="fill-rule:nonzero;"/>
    </g>
</svg>
