<?xml version="1.0" encoding="UTF-8" standalone="no"?>
<!DOCTYPE svg PUBLIC "-//W3C//DTD SVG 1.1//EN" "http://www.w3.org/Graphics/SVG/1.1/DTD/svg11.dtd">
<svg width="100%" height="100%" viewBox="0 0 791 240" version="1.1" xmlns="http://www.w3.org/2000/svg" xmlns:xlink="http://www.w3.org/1999/xlink" xml:space="preserve" xmlns:serif="http://www.serif.com/" style="fill-rule:evenodd;clip-rule:evenodd;stroke-linecap:round;stroke-linejoin:round;stroke-miterlimit:10;">
    <g transform="matrix(1,0,0,1,2.91965e-05,-0.000264322)">
        <text x="771.837px" y="136.235px" style="font-family:'ArialMT', 'Arial', sans-serif;font-size:16.389px;fill:rgb(200,158,13);">R</text>
        <g transform="matrix(606.499,0,0,-145.87,2.5761,135.608)">
            <path d="M0.271,0.205C0.273,0.202 0.275,0.207 0.272,0.212C0.258,0.245 0.219,0.286 0.18,0.291C0.176,0.292 0.172,0.292 0.168,0.292C0.083,0.292 -0.003,0.169 -0.004,0.002C-0.005,-0.066 0.017,-0.09 0.029,-0.091C0.03,-0.091 0.03,-0.09 0.03,-0.09C0.028,-0.087 0.008,-0.06 0.01,-0.011C0.013,0.093 0.081,0.261 0.177,0.261C0.181,0.261 0.185,0.261 0.188,0.26C0.233,0.254 0.268,0.211 0.271,0.205ZM0.039,-0.472C0.039,-0.494 0.042,-0.502 0.045,-0.502C0.05,-0.501 0.063,-0.462 0.064,-0.447C0.058,-0.462 0.054,-0.469 0.05,-0.47C0.048,-0.419 0.1,-0.087 0.132,0.069C0.142,0.12 0.15,0.148 0.155,0.148C0.156,0.148 0.158,0.146 0.159,0.139C0.158,0.171 0.15,0.193 0.143,0.193C0.14,0.193 0.135,0.18 0.13,0.158C0.125,0.137 0.118,0.106 0.109,0.061C0.077,-0.109 0.037,-0.399 0.039,-0.472Z" style="fill:url(#_Linear1);fill-rule:nonzero;"/>
        </g>
        <g transform="matrix(606.499,0,0,-145.87,2.5761,126.246)">
            <path d="M0.191,0.074C0.198,0.107 0.204,0.123 0.208,0.116C0.211,0.107 0.204,0.153 0.193,0.153C0.192,0.153 0.189,0.148 0.186,0.139C0.178,0.111 0.169,0.064 0.164,0.035C0.146,-0.062 0.121,-0.213 0.111,-0.307C0.106,-0.358 0.105,-0.382 0.106,-0.389C0.107,-0.401 0.111,-0.417 0.113,-0.42C0.114,-0.424 0.116,-0.427 0.119,-0.423C0.114,-0.421 0.114,-0.41 0.116,-0.395C0.118,-0.376 0.122,-0.353 0.127,-0.328C0.127,-0.328 0.135,-0.296 0.137,-0.289C0.15,-0.236 0.166,-0.189 0.177,-0.168C0.167,-0.205 0.147,-0.328 0.147,-0.372C0.147,-0.386 0.151,-0.413 0.155,-0.419C0.156,-0.42 0.157,-0.42 0.158,-0.419C0.16,-0.416 0.163,-0.411 0.164,-0.407C0.178,-0.373 0.2,-0.277 0.214,-0.217C0.214,-0.215 0.213,-0.208 0.212,-0.212C0.2,-0.258 0.174,-0.365 0.162,-0.379C0.163,-0.342 0.191,-0.179 0.196,-0.164C0.198,-0.155 0.193,-0.113 0.188,-0.113C0.182,-0.113 0.15,-0.206 0.129,-0.3C0.144,-0.175 0.173,-0.012 0.191,0.074Z" style="fill:url(#_Linear2);fill-rule:nonzero;"/>
        </g>
        <g transform="matrix(606.499,0,0,-145.87,2.5761,163.243)">
            <path d="M0.209,-0.056C0.23,-0.054 0.266,0.058 0.266,0.105C0.266,0.127 0.257,0.145 0.254,0.145C0.246,0.145 0.23,0.121 0.214,0.068C0.203,0.027 0.193,-0.022 0.189,-0.066C0.187,-0.083 0.186,-0.099 0.186,-0.117C0.186,-0.138 0.194,-0.166 0.199,-0.166C0.224,-0.166 0.261,-0.018 0.275,0.036C0.276,0.038 0.274,0.042 0.274,0.041C0.255,-0.024 0.221,-0.132 0.207,-0.132C0.203,-0.132 0.202,-0.127 0.202,-0.117C0.202,-0.097 0.206,-0.072 0.209,-0.056ZM0.26,0.122C0.259,0.092 0.228,-0.033 0.212,-0.041C0.218,0 0.239,0.094 0.26,0.122Z" style="fill:url(#_Linear3);fill-rule:nonzero;"/>
        </g>
        <g transform="matrix(606.499,0,0,-145.87,2.5761,161.438)">
            <path d="M0.5,0.191C0.486,0.096 0.47,-0 0.454,-0.093C0.447,-0.091 0.441,-0.092 0.435,-0.094C0.376,-0.11 0.317,-0.294 0.32,-0.433C0.321,-0.483 0.33,-0.5 0.342,-0.5C0.384,-0.5 0.446,-0.262 0.472,-0.11C0.482,-0.117 0.488,-0.124 0.496,-0.137C0.497,-0.137 0.497,-0.136 0.497,-0.136C0.491,-0.116 0.479,-0.106 0.473,-0.101C0.475,-0.091 0.477,-0.078 0.479,-0.062C0.508,0.102 0.55,0.425 0.562,0.428C0.563,0.428 0.564,0.429 0.566,0.423C0.566,0.438 0.559,0.467 0.551,0.467C0.544,0.467 0.529,0.366 0.504,0.245C0.475,0.1 0.434,-0.048 0.417,-0.055C0.414,-0.057 0.41,-0.056 0.41,-0.047C0.409,0.017 0.469,0.264 0.467,0.381C0.467,0.439 0.454,0.462 0.442,0.458C0.388,0.443 0.315,0.175 0.317,0.047C0.317,0.024 0.324,0.01 0.329,0.011C0.334,0.013 0.339,0.028 0.341,0.042C0.34,0.04 0.336,0.037 0.335,0.037C0.333,0.034 0.33,0.039 0.33,0.049C0.329,0.092 0.394,0.429 0.441,0.44C0.446,0.441 0.456,0.444 0.456,0.393C0.458,0.321 0.396,0.068 0.397,-0.035C0.398,-0.052 0.403,-0.087 0.413,-0.085C0.432,-0.079 0.478,0.092 0.5,0.191ZM0.339,-0.452C0.333,-0.454 0.327,-0.442 0.327,-0.416C0.325,-0.278 0.397,-0.105 0.441,-0.106C0.441,-0.106 0.449,-0.104 0.452,-0.106C0.426,-0.252 0.374,-0.443 0.339,-0.452Z" style="fill:url(#_Linear4);fill-rule:nonzero;"/>
        </g>
        <g transform="matrix(606.499,0,0,-145.87,2.5761,163.243)">
            <path d="M0.543,-0.096C0.542,-0.108 0.542,-0.117 0.542,-0.125C0.542,-0.139 0.545,-0.155 0.548,-0.161C0.549,-0.164 0.55,-0.166 0.551,-0.166C0.562,-0.166 0.592,-0.037 0.609,0.037C0.609,0.039 0.608,0.045 0.607,0.041C0.596,-0.004 0.569,-0.109 0.557,-0.123C0.557,-0.117 0.558,-0.108 0.559,-0.097C0.565,-0.048 0.582,0.037 0.583,0.029C0.583,0.038 0.577,0.081 0.573,0.073C0.569,0.062 0.556,0.013 0.553,0.001C0.543,-0.033 0.517,-0.111 0.511,-0.12C0.511,-0.12 0.51,-0.12 0.51,-0.12C0.508,-0.116 0.522,-0.018 0.54,0.044C0.552,0.087 0.566,0.119 0.576,0.122C0.582,0.123 0.586,0.112 0.586,0.088C0.586,0.077 0.584,0.068 0.583,0.061C0.583,0.06 0.584,0.059 0.584,0.06C0.586,0.07 0.588,0.083 0.588,0.096C0.588,0.133 0.578,0.145 0.571,0.145C0.537,0.145 0.494,-0.028 0.494,-0.112C0.494,-0.127 0.499,-0.157 0.503,-0.164C0.503,-0.164 0.504,-0.166 0.504,-0.166C0.512,-0.166 0.548,-0.036 0.554,-0.013C0.55,-0.032 0.545,-0.068 0.543,-0.096Z" style="fill:url(#_Linear5);fill-rule:nonzero;"/>
        </g>
        <g transform="matrix(606.499,0,0,-145.87,2.5761,163.243)">
            <path d="M0.6,-0.12C0.6,-0.065 0.637,0.109 0.657,0.111C0.658,0.105 0.651,0.044 0.648,0.032C0.647,0.03 0.648,0.028 0.649,0.03C0.655,0.049 0.664,0.078 0.664,0.107C0.664,0.119 0.657,0.145 0.653,0.145C0.64,0.145 0.621,0.105 0.606,0.042C0.593,-0.008 0.587,-0.062 0.585,-0.095C0.585,-0.104 0.585,-0.112 0.585,-0.118C0.586,-0.143 0.593,-0.166 0.599,-0.166C0.622,-0.166 0.657,-0.026 0.673,0.037C0.674,0.039 0.673,0.042 0.672,0.041C0.654,-0.021 0.623,-0.125 0.606,-0.133C0.604,-0.133 0.6,-0.132 0.6,-0.12Z" style="fill:url(#_Linear6);fill-rule:nonzero;"/>
        </g>
        <g transform="matrix(606.499,0,0,-145.87,2.5761,126.246)">
            <path d="M0.736,0.074C0.743,0.107 0.748,0.123 0.752,0.116C0.755,0.107 0.748,0.153 0.738,0.153C0.736,0.153 0.734,0.148 0.731,0.139C0.723,0.111 0.713,0.064 0.708,0.035C0.691,-0.062 0.665,-0.213 0.656,-0.307C0.65,-0.358 0.65,-0.382 0.65,-0.389C0.652,-0.401 0.656,-0.417 0.657,-0.42C0.659,-0.424 0.661,-0.427 0.663,-0.423C0.659,-0.421 0.658,-0.41 0.66,-0.395C0.662,-0.376 0.666,-0.353 0.672,-0.328C0.672,-0.328 0.679,-0.296 0.681,-0.289C0.694,-0.236 0.71,-0.189 0.721,-0.168C0.711,-0.205 0.692,-0.328 0.692,-0.372C0.692,-0.386 0.696,-0.413 0.7,-0.419C0.701,-0.42 0.702,-0.42 0.702,-0.419C0.704,-0.416 0.707,-0.411 0.709,-0.407C0.723,-0.373 0.745,-0.277 0.758,-0.217C0.759,-0.215 0.758,-0.208 0.756,-0.212C0.745,-0.258 0.718,-0.365 0.707,-0.379C0.707,-0.342 0.736,-0.179 0.741,-0.164C0.743,-0.155 0.737,-0.113 0.733,-0.113C0.726,-0.113 0.694,-0.206 0.673,-0.3C0.688,-0.175 0.717,-0.012 0.736,0.074Z" style="fill:url(#_Linear7);fill-rule:nonzero;"/>
        </g>
        <g transform="matrix(606.499,0,0,-145.87,2.5761,124.892)">
            <path d="M0.788,0.01C0.767,0 0.747,-0.021 0.747,-0.056C0.748,-0.081 0.754,-0.096 0.757,-0.096C0.752,-0.084 0.763,-0.047 0.781,-0.032C0.774,-0.07 0.769,-0.104 0.764,-0.136C0.741,-0.283 0.732,-0.358 0.732,-0.382C0.732,-0.39 0.733,-0.392 0.733,-0.393C0.734,-0.405 0.738,-0.421 0.74,-0.424C0.741,-0.428 0.743,-0.431 0.746,-0.427C0.757,-0.41 0.789,-0.27 0.798,-0.226C0.799,-0.224 0.798,-0.218 0.797,-0.222C0.786,-0.263 0.755,-0.389 0.747,-0.386C0.752,-0.336 0.766,-0.238 0.782,-0.136C0.789,-0.09 0.795,-0.052 0.802,-0.016C0.833,0.003 0.867,0.004 0.904,-0.009C0.906,-0.01 0.906,-0.008 0.904,-0.007C0.877,0.017 0.838,0.023 0.808,0.017C0.816,0.061 0.827,0.122 0.833,0.111C0.837,0.102 0.83,0.147 0.819,0.145C0.817,0.145 0.815,0.139 0.812,0.129C0.808,0.114 0.802,0.089 0.788,0.01Z" style="fill:url(#_Linear8);fill-rule:nonzero;"/>
        </g>
        <g transform="matrix(606.499,0,0,-145.87,2.5761,151.964)">
            <path d="M1.033,0.334C1.033,0.39 1.018,0.408 1.009,0.408C0.945,0.408 0.83,0.048 0.831,-0.242C0.831,-0.312 0.842,-0.357 0.861,-0.352C0.893,-0.345 0.939,-0.202 0.968,-0.105C0.951,-0.191 0.929,-0.362 0.929,-0.481C0.929,-0.496 0.931,-0.506 0.933,-0.506C0.934,-0.506 0.934,-0.505 0.934,-0.503C0.934,-0.502 0.933,-0.502 0.933,-0.496C0.933,-0.485 0.935,-0.451 0.939,-0.413C0.949,-0.307 0.979,-0.1 1.015,0.006C1.021,0.026 1.026,0.034 1.029,0.026C1.031,0.015 1.028,0.061 1.018,0.069C1.022,0.071 1.036,0.066 1.045,0.058C1.044,0.069 1.026,0.094 1.004,0.094C0.989,0.094 0.916,0.068 0.916,-0.001C0.916,-0.028 0.923,-0.055 0.923,-0.048C0.923,-0.01 0.972,0.051 1.008,0.067C0.978,-0.046 0.909,-0.287 0.868,-0.303C0.851,-0.309 0.847,-0.275 0.848,-0.229C0.851,0.008 0.957,0.392 1.008,0.392C1.016,0.392 1.025,0.377 1.025,0.343C1.025,0.276 0.998,0.194 0.985,0.194C0.984,0.194 0.989,0.227 0.99,0.232C0.984,0.222 0.978,0.192 0.978,0.174C0.978,0.163 0.982,0.141 0.986,0.141C1.007,0.141 1.033,0.245 1.033,0.334Z" style="fill:url(#_Linear9);fill-rule:nonzero;"/>
        </g>
        <g transform="matrix(606.499,0,0,-145.87,2.5761,163.243)">
            <path d="M1.052,-0.09C1.051,-0.102 1.05,-0.116 1.05,-0.123C1.05,-0.137 1.054,-0.155 1.057,-0.161C1.058,-0.164 1.059,-0.166 1.06,-0.166C1.071,-0.166 1.101,-0.037 1.117,0.037C1.118,0.039 1.117,0.045 1.116,0.041C1.104,-0.004 1.078,-0.109 1.066,-0.123C1.066,-0.102 1.073,-0.047 1.082,0.005C1.089,0.039 1.094,0.067 1.097,0.079C1.099,0.09 1.101,0.097 1.103,0.097C1.104,0.096 1.105,0.092 1.105,0.095C1.105,0.115 1.098,0.145 1.093,0.145C1.093,0.145 1.092,0.144 1.091,0.141C1.08,0.107 1.066,0.04 1.057,0C1.048,-0.035 1.029,-0.105 1.02,-0.12C1.02,-0.098 1.029,-0.031 1.039,0.021C1.045,0.055 1.053,0.095 1.056,0.094C1.057,0.093 1.058,0.089 1.058,0.092C1.058,0.112 1.051,0.143 1.046,0.143C1.046,0.143 1.045,0.142 1.044,0.138C1.039,0.122 1.031,0.085 1.025,0.047C1.014,-0.014 1.004,-0.092 1.004,-0.125C1.004,-0.144 1.01,-0.164 1.013,-0.164L1.014,-0.164C1.025,-0.155 1.05,-0.044 1.069,0.036C1.062,0 1.055,-0.055 1.052,-0.09Z" style="fill:url(#_Linear10);fill-rule:nonzero;"/>
        </g>
        <g transform="matrix(606.499,0,0,-145.87,2.5761,215.468)">
            <path d="M1.187,0.436C1.189,0.448 1.192,0.455 1.193,0.454C1.195,0.453 1.195,0.45 1.195,0.453C1.195,0.472 1.188,0.503 1.184,0.503C1.183,0.503 1.182,0.502 1.181,0.498C1.171,0.464 1.156,0.398 1.146,0.358C1.138,0.323 1.119,0.253 1.11,0.238C1.11,0.26 1.119,0.328 1.128,0.379C1.135,0.414 1.142,0.451 1.145,0.45C1.147,0.449 1.147,0.445 1.147,0.448C1.147,0.468 1.14,0.498 1.136,0.498C1.135,0.498 1.134,0.498 1.133,0.494C1.129,0.478 1.121,0.443 1.115,0.405C1.104,0.344 1.094,0.266 1.094,0.233C1.094,0.215 1.1,0.194 1.103,0.194L1.104,0.194C1.115,0.203 1.141,0.319 1.16,0.399C1.134,0.273 1.109,0.068 1.099,-0.02C1.096,-0.052 1.092,-0.086 1.091,-0.109C1.091,-0.123 1.093,-0.166 1.101,-0.163C1.102,-0.163 1.103,-0.162 1.103,-0.161C1.105,-0.123 1.129,0.039 1.156,0.127C1.156,0.127 1.156,0.132 1.155,0.132C1.15,0.125 1.123,0.022 1.108,-0.062C1.119,0.024 1.149,0.244 1.163,0.319C1.171,0.361 1.179,0.402 1.187,0.436Z" style="fill:url(#_Linear11);fill-rule:nonzero;"/>
        </g>
        <g transform="matrix(606.499,0,0,-145.87,2.5761,162.792)">
            <path d="M1.208,0.143C1.202,0.136 1.197,0.105 1.201,0.09C1.203,0.082 1.21,0.078 1.218,0.078C1.224,0.078 1.231,0.081 1.237,0.088C1.219,0.067 1.172,-0.058 1.164,-0.12C1.163,-0.131 1.171,-0.171 1.174,-0.171C1.177,-0.171 1.19,-0.118 1.209,-0.118C1.227,-0.118 1.236,-0.135 1.241,-0.167C1.241,-0.171 1.242,-0.168 1.241,-0.163C1.235,-0.112 1.219,-0.094 1.205,-0.094C1.197,-0.094 1.189,-0.1 1.185,-0.109C1.196,-0.057 1.248,0.07 1.262,0.078C1.265,0.093 1.255,0.147 1.253,0.138C1.252,0.128 1.24,0.1 1.229,0.097C1.218,0.094 1.206,0.117 1.208,0.143Z" style="fill:url(#_Linear12);fill-rule:nonzero;"/>
        </g>
        <g transform="matrix(-1,0,0,1,1555.94,21.1625)">
            <ellipse cx="777.971" cy="109.042" rx="11.484" ry="11.485" style="fill:none;stroke:rgb(200,158,13);stroke-width:1.5px;"/>
        </g>
        <g transform="matrix(-271.413,13.6202,0.943948,93.2256,225.641,47.0013)">
            <path d="M0.162,-0.055L0.555,-0.055C0.555,-0.055 0.55,-0.005 0.513,0.003C0.476,0.011 0.282,0.027 0.266,0.027C0.244,0.025 0.234,0.033 0.162,-0.055Z" style="fill:url(#_Linear13);"/>
        </g>
        <g transform="matrix(168.061,-81.4732,-213.123,-47.3142,119.505,113.825)">
            <path d="M0.634,0.03C0.634,0.03 0.526,0.129 0.515,0.168C0.559,0.163 0.627,0.159 0.634,0.154C0.64,0.149 0.672,0.11 0.675,0.107C0.678,0.103 0.634,0.03 0.634,0.03Z" style="fill:url(#_Linear14);"/>
        </g>
        <g transform="matrix(271.366,-15.0682,-5.16416,-93.0025,31.4578,56.3031)">
            <path d="M0.859,-0.225C0.859,-0.225 0.863,-0.214 0.859,-0.196C0.867,-0.196 0.882,-0.192 0.888,-0.169C0.896,-0.171 0.917,-0.166 0.917,-0.166C0.925,-0.164 0.928,-0.118 0.913,-0.109C0.897,-0.103 0.863,-0.092 0.863,-0.092C0.863,-0.092 0.83,0.073 0.814,0.102C0.79,0.112 0.757,0.121 0.757,0.121L0.746,0.176C0.734,0.175 0.711,0.197 0.7,0.186C0.689,0.174 0.646,0.157 0.63,0.149C0.608,0.152 0.372,0.182 0.339,0.229C0.325,0.211 0.323,0.201 0.323,0.201C0.323,0.201 0.098,0.136 0.064,0.119L0.036,0.076C0.036,0.076 0.635,0.119 0.805,0.057C0.769,0.046 0.724,0.048 0.699,0.031C0.769,0.04 0.79,0.023 0.804,0.025C0.818,0.026 0.834,-0.018 0.851,-0.106C0.821,-0.124 0.736,-0.188 0.672,-0.184C0.749,-0.206 0.833,-0.239 0.859,-0.225Z" style="fill:url(#_Linear15);"/>
        </g>
        <g transform="matrix(271.366,-15.0682,-5.16416,-93.0025,27.2409,-19.6386)">
            <path d="M0.818,-0.434L0.822,-0.397C0.822,-0.397 0.729,-0.318 0.709,-0.328C0.688,-0.337 0.681,-0.36 0.664,-0.358C0.638,-0.355 0.516,-0.324 0.479,-0.367C0.438,-0.415 0.413,-0.464 0.413,-0.464C0.413,-0.464 0.665,-0.445 0.663,-0.509C0.689,-0.502 0.703,-0.496 0.703,-0.496C0.703,-0.496 0.701,-0.465 0.734,-0.459C0.768,-0.453 0.818,-0.434 0.818,-0.434Z" style="fill:url(#_Linear16);"/>
        </g>
        <g transform="matrix(62.9694,115.326,275.134,-39.5132,65.6129,33.4467)">
            <path d="M0.392,-0.208C0.392,-0.208 0.299,0.167 0.439,0.296C0.579,0.426 0.524,0.698 0.392,0.774C0.646,0.615 0.713,0.33 0.583,0.214C0.454,0.097 0.37,-0.003 0.392,-0.208Z" style="fill:url(#_Linear17);"/>
        </g>
        <g transform="matrix(271.366,-15.0682,-5.16416,-93.0025,32.6308,67.2702)">
            <path d="M0.039,0.173L0.12,-0.094L0.228,-0.059L0.125,-0.024L0.067,0.175L0.039,0.173Z" style="fill:url(#_Linear18);"/>
        </g>
    </g>
    <defs>
        <linearGradient id="_Linear1" x1="0" y1="0" x2="1" y2="0" gradientUnits="userSpaceOnUse" gradientTransform="matrix(1,0,0,-1,0,-0.210489)"><stop offset="0" style="stop-color:rgb(144,113,6);stop-opacity:1"/><stop offset="0.18" style="stop-color:rgb(255,229,140);stop-opacity:1"/><stop offset="0.23" style="stop-color:rgb(200,158,13);stop-opacity:1"/><stop offset="0.3" style="stop-color:rgb(255,229,140);stop-opacity:1"/><stop offset="0.77" style="stop-color:rgb(200,158,13);stop-opacity:1"/><stop offset="0.91" style="stop-color:rgb(210,170,35);stop-opacity:1"/><stop offset="0.96" style="stop-color:rgb(232,199,86);stop-opacity:1"/><stop offset="1" style="stop-color:rgb(255,229,140);stop-opacity:1"/></linearGradient>
        <linearGradient id="_Linear2" x1="0" y1="0" x2="1" y2="0" gradientUnits="userSpaceOnUse" gradientTransform="matrix(1,0,0,-1,0,-0.274673)"><stop offset="0" style="stop-color:rgb(144,113,6);stop-opacity:1"/><stop offset="0.18" style="stop-color:rgb(255,229,140);stop-opacity:1"/><stop offset="0.23" style="stop-color:rgb(200,158,13);stop-opacity:1"/><stop offset="0.3" style="stop-color:rgb(255,229,140);stop-opacity:1"/><stop offset="0.77" style="stop-color:rgb(200,158,13);stop-opacity:1"/><stop offset="0.91" style="stop-color:rgb(210,170,35);stop-opacity:1"/><stop offset="0.96" style="stop-color:rgb(232,199,86);stop-opacity:1"/><stop offset="1" style="stop-color:rgb(255,229,140);stop-opacity:1"/></linearGradient>
        <linearGradient id="_Linear3" x1="0" y1="0" x2="1" y2="0" gradientUnits="userSpaceOnUse" gradientTransform="matrix(1,0,0,-1,0,-0.0210386)"><stop offset="0" style="stop-color:rgb(144,113,6);stop-opacity:1"/><stop offset="0.18" style="stop-color:rgb(255,229,140);stop-opacity:1"/><stop offset="0.23" style="stop-color:rgb(200,158,13);stop-opacity:1"/><stop offset="0.3" style="stop-color:rgb(255,229,140);stop-opacity:1"/><stop offset="0.77" style="stop-color:rgb(200,158,13);stop-opacity:1"/><stop offset="0.91" style="stop-color:rgb(210,170,35);stop-opacity:1"/><stop offset="0.96" style="stop-color:rgb(232,199,86);stop-opacity:1"/><stop offset="1" style="stop-color:rgb(255,229,140);stop-opacity:1"/></linearGradient>
        <linearGradient id="_Linear4" x1="0" y1="0" x2="1" y2="0" gradientUnits="userSpaceOnUse" gradientTransform="matrix(1,0,0,-1,0,-0.0334133)"><stop offset="0" style="stop-color:rgb(144,113,6);stop-opacity:1"/><stop offset="0.18" style="stop-color:rgb(255,229,140);stop-opacity:1"/><stop offset="0.23" style="stop-color:rgb(200,158,13);stop-opacity:1"/><stop offset="0.3" style="stop-color:rgb(255,229,140);stop-opacity:1"/><stop offset="0.77" style="stop-color:rgb(200,158,13);stop-opacity:1"/><stop offset="0.91" style="stop-color:rgb(210,170,35);stop-opacity:1"/><stop offset="0.96" style="stop-color:rgb(232,199,86);stop-opacity:1"/><stop offset="1" style="stop-color:rgb(255,229,140);stop-opacity:1"/></linearGradient>
        <linearGradient id="_Linear5" x1="0" y1="0" x2="1" y2="0" gradientUnits="userSpaceOnUse" gradientTransform="matrix(1,0,0,-1,0,-0.0210386)"><stop offset="0" style="stop-color:rgb(144,113,6);stop-opacity:1"/><stop offset="0.18" style="stop-color:rgb(255,229,140);stop-opacity:1"/><stop offset="0.23" style="stop-color:rgb(200,158,13);stop-opacity:1"/><stop offset="0.3" style="stop-color:rgb(255,229,140);stop-opacity:1"/><stop offset="0.77" style="stop-color:rgb(200,158,13);stop-opacity:1"/><stop offset="0.91" style="stop-color:rgb(210,170,35);stop-opacity:1"/><stop offset="0.96" style="stop-color:rgb(232,199,86);stop-opacity:1"/><stop offset="1" style="stop-color:rgb(255,229,140);stop-opacity:1"/></linearGradient>
        <linearGradient id="_Linear6" x1="0" y1="0" x2="1" y2="0" gradientUnits="userSpaceOnUse" gradientTransform="matrix(1,0,0,-1,0,-0.0210386)"><stop offset="0" style="stop-color:rgb(144,113,6);stop-opacity:1"/><stop offset="0.18" style="stop-color:rgb(255,229,140);stop-opacity:1"/><stop offset="0.23" style="stop-color:rgb(200,158,13);stop-opacity:1"/><stop offset="0.3" style="stop-color:rgb(255,229,140);stop-opacity:1"/><stop offset="0.77" style="stop-color:rgb(200,158,13);stop-opacity:1"/><stop offset="0.91" style="stop-color:rgb(210,170,35);stop-opacity:1"/><stop offset="0.96" style="stop-color:rgb(232,199,86);stop-opacity:1"/><stop offset="1" style="stop-color:rgb(255,229,140);stop-opacity:1"/></linearGradient>
        <linearGradient id="_Linear7" x1="0" y1="0" x2="1" y2="0" gradientUnits="userSpaceOnUse" gradientTransform="matrix(1,0,0,-1,0,-0.274673)"><stop offset="0" style="stop-color:rgb(144,113,6);stop-opacity:1"/><stop offset="0.18" style="stop-color:rgb(255,229,140);stop-opacity:1"/><stop offset="0.23" style="stop-color:rgb(200,158,13);stop-opacity:1"/><stop offset="0.3" style="stop-color:rgb(255,229,140);stop-opacity:1"/><stop offset="0.77" style="stop-color:rgb(200,158,13);stop-opacity:1"/><stop offset="0.91" style="stop-color:rgb(210,170,35);stop-opacity:1"/><stop offset="0.96" style="stop-color:rgb(232,199,86);stop-opacity:1"/><stop offset="1" style="stop-color:rgb(255,229,140);stop-opacity:1"/></linearGradient>
        <linearGradient id="_Linear8" x1="0" y1="0" x2="1" y2="0" gradientUnits="userSpaceOnUse" gradientTransform="matrix(1,0,0,-1,0,-0.283952)"><stop offset="0" style="stop-color:rgb(144,113,6);stop-opacity:1"/><stop offset="0.18" style="stop-color:rgb(255,229,140);stop-opacity:1"/><stop offset="0.23" style="stop-color:rgb(200,158,13);stop-opacity:1"/><stop offset="0.3" style="stop-color:rgb(255,229,140);stop-opacity:1"/><stop offset="0.77" style="stop-color:rgb(200,158,13);stop-opacity:1"/><stop offset="0.91" style="stop-color:rgb(210,170,35);stop-opacity:1"/><stop offset="0.96" style="stop-color:rgb(232,199,86);stop-opacity:1"/><stop offset="1" style="stop-color:rgb(255,229,140);stop-opacity:1"/></linearGradient>
        <linearGradient id="_Linear9" x1="0" y1="0" x2="1" y2="0" gradientUnits="userSpaceOnUse" gradientTransform="matrix(1,0,0,-1,0,-0.0983657)"><stop offset="0" style="stop-color:rgb(144,113,6);stop-opacity:1"/><stop offset="0.18" style="stop-color:rgb(255,229,140);stop-opacity:1"/><stop offset="0.23" style="stop-color:rgb(200,158,13);stop-opacity:1"/><stop offset="0.3" style="stop-color:rgb(255,229,140);stop-opacity:1"/><stop offset="0.77" style="stop-color:rgb(200,158,13);stop-opacity:1"/><stop offset="0.91" style="stop-color:rgb(210,170,35);stop-opacity:1"/><stop offset="0.96" style="stop-color:rgb(232,199,86);stop-opacity:1"/><stop offset="1" style="stop-color:rgb(255,229,140);stop-opacity:1"/></linearGradient>
        <linearGradient id="_Linear10" x1="0" y1="0" x2="1" y2="0" gradientUnits="userSpaceOnUse" gradientTransform="matrix(1,0,0,-1,0,-0.0210386)"><stop offset="0" style="stop-color:rgb(144,113,6);stop-opacity:1"/><stop offset="0.18" style="stop-color:rgb(255,229,140);stop-opacity:1"/><stop offset="0.23" style="stop-color:rgb(200,158,13);stop-opacity:1"/><stop offset="0.3" style="stop-color:rgb(255,229,140);stop-opacity:1"/><stop offset="0.77" style="stop-color:rgb(200,158,13);stop-opacity:1"/><stop offset="0.91" style="stop-color:rgb(210,170,35);stop-opacity:1"/><stop offset="0.96" style="stop-color:rgb(232,199,86);stop-opacity:1"/><stop offset="1" style="stop-color:rgb(255,229,140);stop-opacity:1"/></linearGradient>
        <linearGradient id="_Linear11" x1="0" y1="0" x2="1" y2="0" gradientUnits="userSpaceOnUse" gradientTransform="matrix(1,0,0,-1,0,0.336985)"><stop offset="0" style="stop-color:rgb(144,113,6);stop-opacity:1"/><stop offset="0.18" style="stop-color:rgb(255,229,140);stop-opacity:1"/><stop offset="0.23" style="stop-color:rgb(200,158,13);stop-opacity:1"/><stop offset="0.3" style="stop-color:rgb(255,229,140);stop-opacity:1"/><stop offset="0.77" style="stop-color:rgb(200,158,13);stop-opacity:1"/><stop offset="0.91" style="stop-color:rgb(210,170,35);stop-opacity:1"/><stop offset="0.96" style="stop-color:rgb(232,199,86);stop-opacity:1"/><stop offset="1" style="stop-color:rgb(255,229,140);stop-opacity:1"/></linearGradient>
        <linearGradient id="_Linear12" x1="0" y1="0" x2="1" y2="0" gradientUnits="userSpaceOnUse" gradientTransform="matrix(1,0,0,-1,0,-0.0241318)"><stop offset="0" style="stop-color:rgb(144,113,6);stop-opacity:1"/><stop offset="0.18" style="stop-color:rgb(255,229,140);stop-opacity:1"/><stop offset="0.23" style="stop-color:rgb(200,158,13);stop-opacity:1"/><stop offset="0.3" style="stop-color:rgb(255,229,140);stop-opacity:1"/><stop offset="0.77" style="stop-color:rgb(200,158,13);stop-opacity:1"/><stop offset="0.91" style="stop-color:rgb(210,170,35);stop-opacity:1"/><stop offset="0.96" style="stop-color:rgb(232,199,86);stop-opacity:1"/><stop offset="1" style="stop-color:rgb(255,229,140);stop-opacity:1"/></linearGradient>
        <linearGradient id="_Linear13" x1="0" y1="0" x2="1" y2="0" gradientUnits="userSpaceOnUse" gradientTransform="matrix(-0.999879,-0.0155494,-0.0155494,0.999879,0.715276,0.0055614)"><stop offset="0" style="stop-color:white;stop-opacity:1"/><stop offset="0.23" style="stop-color:rgb(200,158,13);stop-opacity:1"/><stop offset="0.87" style="stop-color:rgb(255,229,140);stop-opacity:1"/><stop offset="0.94" style="stop-color:rgb(200,158,13);stop-opacity:1"/><stop offset="1" style="stop-color:rgb(255,229,140);stop-opacity:1"/></linearGradient>
        <linearGradient id="_Linear14" x1="0" y1="0" x2="1" y2="0" gradientUnits="userSpaceOnUse" gradientTransform="matrix(0.634032,-0.773307,-0.773307,-0.634032,0.311727,0.658693)"><stop offset="0" style="stop-color:white;stop-opacity:1"/><stop offset="0.23" style="stop-color:rgb(200,158,13);stop-opacity:1"/><stop offset="0.87" style="stop-color:rgb(255,229,140);stop-opacity:1"/><stop offset="0.94" style="stop-color:rgb(200,158,13);stop-opacity:1"/><stop offset="1" style="stop-color:rgb(255,229,140);stop-opacity:1"/></linearGradient>
        <linearGradient id="_Linear15" x1="0" y1="0" x2="1" y2="0" gradientUnits="userSpaceOnUse" gradientTransform="matrix(1,-2.77556e-17,3.46945e-18,-1,0,-0.0103103)"><stop offset="0" style="stop-color:white;stop-opacity:1"/><stop offset="0.23" style="stop-color:rgb(200,158,13);stop-opacity:1"/><stop offset="0.87" style="stop-color:rgb(255,229,140);stop-opacity:1"/><stop offset="0.94" style="stop-color:rgb(200,158,13);stop-opacity:1"/><stop offset="1" style="stop-color:rgb(255,229,140);stop-opacity:1"/></linearGradient>
        <linearGradient id="_Linear16" x1="0" y1="0" x2="1" y2="0" gradientUnits="userSpaceOnUse" gradientTransform="matrix(1,-2.77556e-17,3.46945e-18,-1,0,-0.826866)"><stop offset="0" style="stop-color:white;stop-opacity:1"/><stop offset="0.23" style="stop-color:rgb(200,158,13);stop-opacity:1"/><stop offset="0.87" style="stop-color:rgb(255,229,140);stop-opacity:1"/><stop offset="0.94" style="stop-color:rgb(200,158,13);stop-opacity:1"/><stop offset="1" style="stop-color:rgb(255,229,140);stop-opacity:1"/></linearGradient>
        <linearGradient id="_Linear17" x1="0" y1="0" x2="1" y2="0" gradientUnits="userSpaceOnUse" gradientTransform="matrix(0.199852,0.979826,0.979826,-0.199852,0.137609,-0.16851)"><stop offset="0" style="stop-color:white;stop-opacity:1"/><stop offset="0.23" style="stop-color:rgb(200,158,13);stop-opacity:1"/><stop offset="0.87" style="stop-color:rgb(255,229,140);stop-opacity:1"/><stop offset="0.94" style="stop-color:rgb(200,158,13);stop-opacity:1"/><stop offset="1" style="stop-color:rgb(255,229,140);stop-opacity:1"/></linearGradient>
        <linearGradient id="_Linear18" x1="0" y1="0" x2="1" y2="0" gradientUnits="userSpaceOnUse" gradientTransform="matrix(1,-2.77556e-17,3.46945e-18,-1,0,0.0807422)"><stop offset="0" style="stop-color:white;stop-opacity:1"/><stop offset="0.23" style="stop-color:rgb(200,158,13);stop-opacity:1"/><stop offset="0.87" style="stop-color:rgb(255,229,140);stop-opacity:1"/><stop offset="0.94" style="stop-color:rgb(200,158,13);stop-opacity:1"/><stop offset="1" style="stop-color:rgb(255,229,140);stop-opacity:1"/></linearGradient>
    </defs>
</svg>
