<?xml version="1.0" encoding="UTF-8" standalone="no"?>
<!DOCTYPE svg PUBLIC "-//W3C//DTD SVG 1.1//EN" "http://www.w3.org/Graphics/SVG/1.1/DTD/svg11.dtd">
<svg width="100%" height="100%" viewBox="0 0 643 733" version="1.1" xmlns="http://www.w3.org/2000/svg" xmlns:xlink="http://www.w3.org/1999/xlink" xml:space="preserve" xmlns:serif="http://www.serif.com/" style="fill-rule:evenodd;clip-rule:evenodd;stroke-linejoin:round;stroke-miterlimit:2;">
    <g transform="matrix(1,0,0,1,-102.089,-57)">
        <path d="M459,223L460,245L545,250C565,221 616,234 616,273C616,313 565,326 545,297L463,301L478,596C547,585 616,549 626,475L583,489C570,494 560,475 572,466L647,411C652,407 658,407 663,411L739,466C751,475 742,493 728,489L685,475C676,686 498,661 435,783C430,792 417,792 412,783C350,662 171,684 161,477L119,489C105,493 96,475 107,466L183,411C188,407 194,407 198,411L275,466C286,474 278,493 264,489L213,475C223,549 300,585 369,596L384,301L302,297C281,326 231,313 231,273C231,234 281,221 302,250L387,245L388,223C306,187 329,57 423,57C518,57 541,187 459,223ZM423,115C439,115 452,128 452,144C452,160 439,173 423,173C407,173 394,160 394,144C394,128 407,115 423,115Z"/>
    </g>
</svg>
